<svg width="324" height="156" viewBox="0 0 324 156" fill="none" xmlns="http://www.w3.org/2000/svg">
<path d="M241.9 51.4C241.3 49.1 241.7 46.8 242.1 44.5C243.5 37.8 247.6 33.2 253.6 30.3C256.7 28.8 260 27.7 263.1 26.4C265.7 25.3 268.4 24.3 270.9 23.1C273.1 22.1 275 20.7 276.5 18.8C278.4 16.6 279.4 13.9 279.5 11C279.6 9.79998 279.3 8.59998 278.8 7.39998C278.4 6.39998 277.8 5.49998 277.4 4.49998C277.2 4.09998 277 3.79999 276.8 3.29999C277.8 3.29999 278.4 3.69999 279.1 4.09999C282.3 5.99999 284.4 8.79999 285.9 12.1C287.4 15.7 288.1 19.4 287.8 23.3C287.6 25.6 286.7 27.7 285.2 29.4C284.9 29.7 284.5 30 284.2 30.4C283.2 31.5 282.1 31.9 280.6 32C278.3 32.2 276.1 32.6 273.8 32.9C271.3 33.2 268.9 33.5 266.4 33.8C265 34 263.7 34.3 262.4 34.6C262 34.7 261.5 35 261.2 35.3C260.3 36.2 260.7 37.4 261.9 37.7C262.3 37.8 262.7 37.8 263.2 37.7C265.6 37.5 267.9 37.3 270.3 37C273 36.7 275.7 36.3 278.4 35.9C282.4 35.3 286.5 35 290.5 35.5C296.1 36.2 300.7 38.8 304.2 43.1C306.5 46 308.1 49.2 308.9 52.8C309.1 53.9 309.2 55 309.3 56.1C309 56.1 308.8 56.1 308.6 56.1C303 54.5 297.3 54.5 291.7 55.6C286 56.7 280.2 57.5 274.4 57.6C273.3 57.6 272.2 57.9 271.1 58.1C270.7 58.2 270.3 58.4 270.1 58.7C269.5 59.4 269.9 60.4 270.9 60.6C271.9 60.8 272.9 61 273.9 61C279.1 61.1 284.2 60.7 289.3 59.8C292.4 59.3 295.5 58.6 298.7 58.5C303.6 58.4 308.3 59.2 312.7 61.6C316.1 63.4 318.7 66 319.8 69.8C320.2 71.3 320.5 72.8 320.2 74.4C319.6 78.4 316.6 81.2 312.5 81.2C310.2 81.2 307.8 80.9 305.5 80.6C300.1 80 294.6 79.2 289.2 78.6C285.3 78.2 281.4 78.3 277.5 78.8C271.6 79.5 265.7 80.4 259.9 81.1C255.7 81.6 251.5 82 247.3 81.6C243.7 81.3 240.2 80.7 237 79.1C235.8 78.5 234.5 77.7 233.5 76.8C231.1 74.6 230 71.9 230.5 68.7C230.6 67.8 231 66.9 231.4 66.1C234.6 59.8 239.7 55.8 246.3 53.7C249.5 52.7 252.7 52.1 256 51.9C260.5 51.5 265 51.3 269.5 50.9C274.4 50.5 279.3 50 284.3 49.5C285.2 49.4 286.2 49.1 287.1 48.8C287.8 48.6 288.2 48 288.1 47.4C288.1 46.8 287.6 46.2 286.8 46.2C285.5 46.1 284.1 46.1 282.8 46.1C279.5 46.3 276.2 46.5 272.8 46.7C267.2 47 261.6 47.2 256.1 47.7C251.5 48.1 247 48.9 242.7 50.6C242.3 51.3 242.1 51.4 241.9 51.4Z" fill="#97CB9E"/>
<path d="M295.6 154.1C295.2 154.1 294.9 154.2 294.5 154.2C288.4 154.2 282.2 154.1 276.1 154.1C275.5 154.1 275.1 153.9 274.6 153.6C272.7 152.2 271.3 150.3 270.3 148.2C269 145.4 268.4 142.5 268.9 139.4C269.1 137.9 269.7 136.5 270.8 135.4C272.1 134 273.6 133.8 275.3 134.5C277.5 135.4 279 137.1 279.8 139.3C280.6 141.8 279.3 144.1 276.9 144.6C275.3 145 274.1 144.1 274 142.5C274 142.1 274 141.7 274 141.2C273.9 140.3 273.4 139.7 272.6 139.6C271.8 139.5 271.2 140 271 140.9C270.1 144 272.8 147.7 276 147.9C281.2 148.1 284.9 143.8 283.9 138.8C283.1 134.8 280.8 131.8 276.9 130.2C272 128.2 267.9 131.1 266.3 133.9C264.8 136.5 264.5 139.4 264.9 142.4C265.4 146.6 267 150.3 269.8 153.4C269.9 153.5 269.9 153.6 270 153.7V153.8C268.8 153.8 267.5 153.9 266.3 153.8C262.2 153.5 258.1 153.2 253.9 152.8C251.3 152.5 248.7 152.3 246.2 151.6C245.5 151.4 245 151.1 244.8 150.4C243.4 146.3 243.1 142.2 245.1 138.1C245.9 136.5 247.1 135.3 248.6 134.4C250.1 133.6 251.6 133.5 253.1 134.2C255.1 135.1 256.4 136.7 257.1 138.8C257.4 139.6 257.2 140.4 256.8 141.1C256.1 142.4 255 143.2 253.5 143.3C252.5 143.4 251.8 143 251.3 142.1C251.1 141.7 250.9 141.2 250.7 140.9C250.4 140.5 250.1 140.1 249.7 139.9C248.9 139.4 248 139.8 247.7 140.6C247.6 140.9 247.5 141.4 247.6 141.7C248.7 145.1 251.2 147.3 255.1 146.3C257.8 145.6 259.7 143.9 260.5 141.1C260.9 139.9 260.8 138.7 260.4 137.5C259.2 133.5 256.6 130.7 252.4 129.9C250.7 129.6 249 129.8 247.4 130.6C244 132.2 242 135.1 241 138.6C240.4 140.6 240.1 142.6 240.4 144.7C240.4 144.8 240.4 145 240.4 145.3C240.2 144.9 240 144.7 239.9 144.5C236.8 138.3 234.2 131.9 232 125.4C231.9 125 231.8 124.6 232 124.2C233.4 121 237.5 119.1 240.7 120.4C241.4 120.7 242.1 121.1 242.6 121.6C244.4 123.4 243.8 126.3 241.5 127.3C240.3 127.9 238.4 127.5 238.3 125.7C238.3 125.5 238.2 125.2 238.1 125C237.8 124.2 237.2 123.8 236.5 123.9C235.8 124 235.3 124.5 235.3 125.4C235.2 127.3 236 128.8 237.6 129.7C239.1 130.6 240.8 130.7 242.5 130C245.1 128.9 246.7 127 247 124.2C247.4 121.3 246.2 119 243.8 117.4C239.9 114.8 234.1 115.8 231.2 119.6C231 119.9 230.8 120.2 230.4 120.6C228.5 114.7 227.1 108.9 225.7 102.9C226.1 103.2 226.3 103.4 226.6 103.6C229.5 105.9 232.4 108.3 235.2 110.6C235.8 111.1 236.5 111.5 237.2 112C238.9 113.2 240.8 113.3 242.8 112.7C244.9 112 246.9 111 248.8 109.9C250.2 109 251.6 108.2 253.2 107.2C252.9 107.8 252.8 108.2 252.6 108.5C251.1 112.1 250.5 115.8 251.7 119.6C252.9 123.4 255.4 126 259.2 127.3C262.3 128.4 265.8 127.2 267.6 124.4C269.4 121.7 269.7 118.7 268.6 115.6C267.2 111.8 263 110.8 260 113.4C259.5 113.9 259 114.5 258.8 115.1C258.4 116 258.8 116.9 259.5 117.3C260.1 117.7 260.9 117.5 261.6 116.8C261.8 116.6 261.9 116.4 262.1 116.2C263.1 115.2 264.5 115.4 265.2 116.6C266.1 118.3 266 121.1 264.8 122.6C263.8 123.9 262.2 124.4 260.6 123.8C257.7 122.7 256.1 120.6 255.3 117.7C254.1 113 256.6 105.8 261.9 103.2C262.3 103.5 262.8 103.8 263.2 104.2C265.2 106.1 267.3 107.9 269.3 109.8C270.8 111.2 272.3 112.5 273.8 113.9C275.3 115.3 277 115.5 278.8 114.7C279.8 114.3 280.8 113.8 281.9 113.3C281.8 113.7 281.7 114.1 281.6 114.4C280.6 117.7 280.3 121.1 281.2 124.5C281.6 126.2 282.4 127.6 283.5 128.9C287.7 133.8 295.1 133.1 298.3 127.5C299.7 125 300.2 122.4 299.6 119.6C298.8 116 295.1 113.9 291.6 115.1C289.4 115.8 287.8 118.1 287.9 120.4C287.9 120.6 287.9 120.7 287.9 120.9C288.1 121.8 288.6 122.4 289.3 122.5C290 122.6 290.7 122.2 291 121.3C291.2 120.8 291.3 120.3 291.4 119.9C291.8 118.7 292.7 118.2 294 118.5C295.1 118.8 295.9 119.4 296.1 120.5C296.7 123.1 296.1 125.5 294.1 127.3C291.9 129.4 288.3 128.9 286.2 126.5C285.1 125.1 284.5 123.5 284.3 121.8C283.9 117.7 284.8 113.9 287.1 110.5C287.4 110.1 287.7 109.7 288 109.5C290.5 108 293 106.5 295.5 105C296.4 104.4 297.2 104.5 298 105.1C299.6 106.4 301.2 107.7 302.8 109C304.1 110 305.3 111.1 306.6 112.1C307.7 112.9 308.9 113.1 310.2 112.6C310.4 112.5 310.6 112.5 310.9 112.4C312.2 113.8 312.8 115.5 313.1 117.4C313.4 119.7 313.1 122 312.1 124.1C311.6 125.1 310.9 126 310 126.6C308.5 127.5 306.8 127 306 125.4C305.6 124.5 305.5 123.6 305.7 122.7C306 121.4 307.1 120.9 308.3 121.4C308.7 121.6 309.1 121.8 309.5 121.9C310.7 122.1 311.4 121.3 311.1 120.1C310.9 119.4 310.4 118.9 309.8 118.5C306.8 116.7 303.1 118.3 302.4 121.8C302.1 123.6 302.3 125.4 303.3 127C304.9 129.8 308.4 130.9 311.3 129.4C312.9 128.6 314 127.5 314.9 126C317.6 121.6 317.6 115.6 314.2 111.3C314.1 111.2 314 111.1 313.9 110.9C317.1 109 320.2 107.1 323.5 105.1C323.4 105.6 323.4 105.9 323.3 106.2C320.7 115.5 317.9 124.8 314.2 133.8C312.3 138.5 310.1 143.1 307.2 147.4C306.6 148.3 305.9 149.1 305.3 150C304.3 151.4 302.9 152 301.3 152.1C297.8 152.4 293.9 150.3 292.3 147.2C291.3 145.2 291.2 143.1 291.8 141.1C292.7 138.3 295.2 137.3 297.8 138.5C298.8 139 299.6 139.7 300.1 140.7C300.5 141.5 300.4 142 299.7 142.5C299.1 142.9 298.5 143.1 297.8 143.4C297.4 143.6 296.9 143.7 296.6 144C295.6 144.7 295.8 146 297 146.5C297.3 146.6 297.8 146.7 298.1 146.7C299.5 146.5 300.9 146 302 145.2C304.1 143.6 304.7 141.3 303.6 138.9C302.1 135.7 298.3 133.7 294.5 134.2C291.3 134.6 288.6 137.6 288.1 141.1C287.2 146.5 290 151.1 294 153.5C294.4 153.7 294.7 153.9 295.1 154.1C295.6 154 295.6 154 295.6 154.1Z" fill="#EE7896"/>
<path d="M277.3 111.4C276.8 110.9 276.4 110.5 276 110.2C273 107.4 270.1 104.5 267.1 101.7C266.3 100.9 265.3 100.2 264.4 99.6C262.9 98.6 261.3 98.5 259.7 99.3C259.1 99.6 258.5 99.9 258 100.2C254.6 102.2 251.3 104.2 247.9 106.1C246 107.1 244.1 108 242.1 108.9C241.1 109.4 240.2 109.3 239.4 108.6C239.3 108.5 239.1 108.4 238.9 108.3C234.6 105 230.2 101.6 225.8 98.2C226.4 95.3 227 92.4 228.5 89.7C230 87.1 231.8 84.6 233.4 82.1C234.4 82.6 235.3 83.1 236.2 83.5C239.3 85 242.6 85.6 245.9 86C251 86.6 256.1 86.1 261.2 85.5C266.5 84.8 271.9 84 277.2 83.4C282 82.8 286.8 82.9 291.5 83.5C296.8 84.2 302 84.9 307.3 85.5C309.2 85.7 311.1 85.6 313 85.6C313.2 85.6 313.5 85.6 313.6 85.6C317.7 90.3 321.2 95.2 323.2 101.1C323.1 101.2 322.9 101.3 322.7 101.5C318.9 104 315 106.4 311 108.5C309.4 109.3 309.4 109.3 308.1 108.1C306.6 106.7 305.2 105.3 303.6 104C302.4 103 301.1 102.1 299.8 101.3C297.9 100.1 296 100.3 294.1 101.6C290 104.2 285.8 106.8 281.6 109.3C280.4 109.9 278.8 110.6 277.3 111.4Z" fill="#785F63"/>
<path d="M51.2999 3.5C51.0999 3.8 50.8999 4 50.7999 4.2C47.9999 7.9 47.3999 11.9 49.0999 16.2C50.5999 19.9 53.0999 22.7 56.2999 24.9C57.9999 26.1 59.7999 27.1 61.5999 28.1C63.3999 29.1 65.0999 30.3 66.5999 31.7C69.0999 34.2 70.4999 37.2 70.8999 40.6C70.8999 41 70.8999 41.4 70.8999 41.9C70.8999 42.5 70.7999 43.2 70.7999 43.8C70.7999 45.3 71.3999 46.1 72.8999 46.5C73.5999 46.6 74.2999 46.7 74.8999 46.8C75.6999 47 76.5999 47.1 77.2999 47.4C80.0999 48.4 81.8999 50.4 82.6999 53.4C83.3999 56.1 83.2999 58.8 83.0999 61.5C82.9999 62.1 82.9999 62.8 82.9999 63.4C82.9999 64.6 83.4999 65.6 84.5999 66.2C85.2999 66.6 86.0999 67 86.8999 67.3C91.6999 69.4 94.4999 73 95.3999 78.2C95.7999 80.9 94.9999 83 92.8999 84.7C91.4999 85.8 89.9999 86.6 88.2999 87.3C82.7999 89.5 76.9999 90.9 71.0999 91.7C64.6999 92.5 58.1999 92.9 51.6999 93.1C44.5999 93.4 37.4999 93.1 30.2999 92.6C25.3999 92.2 20.5999 91.5 15.9999 89.9C14.4999 89.4 12.8999 88.7 11.4999 87.9C8.29994 86 6.49994 83.1 5.69994 79.5C5.39994 78.2 5.69993 76.9 6.09993 75.7C7.19993 72.6 9.19993 70.1 12.1999 68.8C13.2999 68.3 14.3999 67.9 15.4999 67.5C16.6999 67 17.1999 66.3 16.8999 65C16.6999 64.1 16.3999 63.1 16.2999 62.2C15.7999 58.3 16.5999 54.5 18.5999 51.2C21.1999 46.8 25.1999 44.9 30.2999 45C31.0999 45 31.8999 45.1 32.6999 45.2C33.1999 45.2 33.5999 45.2 34.0999 45.2C35.2999 45 35.9999 43.9 35.5999 42.7C35.3999 42.2 35.1999 41.6 34.8999 41.2C32.6999 37.6 32.1999 33.7 32.5999 29.6C32.7999 28 32.8999 26.3 33.2999 24.7C35.0999 17.4 39.0999 11.5 44.9999 6.89999C46.4999 5.69999 48.2999 4.80001 50.0999 4.10001C50.3999 3.70001 50.7999 3.6 51.2999 3.5Z" fill="#FFCFCF"/>
<path d="M78.8999 153.7C78.9999 152.9 79.1 152.1 79.2 151.4C80.6 141.3 82.4 131.2 84.3 121.2C84.6 119.6 84.8 117.9 85 116.3C85.1 115.7 84.9999 115.1 84.8999 114.5C84.7999 113.7 84.2 113.1 83.5 113C82.7 112.9 82.2 113.3 81.8 114C81.4 114.7 81.0999 115.4 80.8999 116.1C80.2999 118.7 79.6 121.4 79.1 124.1C77.7 132 76.4 139.9 75 147.9C74.7 149.9 74.4 152 74.1 154.2C70.4 154.5 66.7 154.5 62.9 154.6C62.9 154.2 62.9 153.9 62.9 153.6C63.1 148.6 63.2 143.6 63.5 138.7C63.7 133.3 64 127.8 64.3 122.4C64.4 121.3 64.3 120.2 64.3 119.1C64.3 118.7 64.1999 118.3 64.0999 117.9C63.7999 116.7 63.2 116.1 62.4 116.1C61.5 116.1 60.7999 116.6 60.5 117.8C60.2999 118.6 60.0999 119.4 60 120.2C59.7 123.6 59.5 127.1 59.3 130.5C59 136.4 58.7 142.4 58.5 148.3C58.4 150.4 58.5 152.5 58.5 154.6C57.5 154.9 49.6 154.9 48.3 154.6C48.1 152.1 47.7999 149.7 47.5999 147.2C47.0999 142.5 46.5999 137.8 46.0999 133C45.6999 129 45.3 124.9 44.8 120.9C44.5 118.6 44.2 116.3 43.9 114C43.8 113.5 43.6 113 43.4 112.5C43.1 111.9 42.5999 111.5 42 111.5C41.2999 111.5 40.7999 111.9 40.5999 112.5C40.2999 113.4 40 114.3 40 115.2C40 117.5 40.1 119.8 40.3 122.1C40.8 127.7 41.5 133.4 42.0999 139C42.5999 143.8 43.0999 148.7 43.5999 153.5C43.5999 153.8 43.5999 154.1 43.6999 154.6C39.9999 154.4 36.4 154.1 32.9 153.9C31.4 147.3 29.8 140.8 28.3 134.4C27.1 129 25.7999 123.6 24.5999 118.2C24.4999 117.6 24.2999 116.9 24.0999 116.3C23.7999 115.5 23.2 115.1 22.5 115.1C21.7 115.2 21.2 115.7 21 116.4C20.6 117.8 20.7 119.1 20.9 120.5C21.7 124.8 22.5 129 23.4 133.2C24.8 139.5 26.3 145.7 27.8 152C27.9 152.4 27.9999 152.8 28.0999 153.3C27.8999 153.3 27.7999 153.4 27.6999 153.4C25.4999 153 23.2999 152.7 21.0999 152.3C19.1999 152 17.8 150.9 16.8 149.2C14.7 145.6 13 141.8 11.4 137.9C6.99995 127.6 3.49995 117.1 1.09995 106.2C0.799949 105.1 0.499951 103.9 0.199951 102.6C0.799951 102.8 1.29995 102.8 1.69995 103C2.89995 103.6 4.19995 104.2 5.39995 104.8C7.49995 105.9 9.49995 107.1 11.5999 108.3C13.8999 109.6 16.2 110.5 18.8 110.9C22 111.5 25.0999 111 28.0999 110.1C30.3999 109.4 32.7 108.6 35 107.8C37.9 106.8 40.9 106.1 44 105.9C48.0999 105.5 52.1 106.2 55.9 107.6C58.1 108.4 60.2999 109.3 62.5 110.2C65.6 111.4 68.8999 112.1 72.2 112.2C74.6 112.3 76.9999 112 79.3999 111.3C81.7999 110.6 84.1 109.7 86.3 108.6C88.1 107.7 89.8999 106.8 91.7 105.8C93.7999 104.7 96.0999 103.9 98.3999 103.5C98.7 103.4 99 103.4 99.5 103.3C99.5 103.9 99.4999 104.5 99.3999 105.1C98.0999 117.3 95.6 129.2 91.6 140.8C90.5 144 89.3 147.2 87.5 150.2C87 151.1 86.3 152 85.6 152.8C85.4 153.1 85 153.4 84.7 153.4C82.7 153.5 80.8999 153.6 78.8999 153.7Z" fill="#97CB9E"/>
<path d="M94.2 88.5C96.3 91.9 97.7 95.5 98.6 99.4C97.9 99.6 97.3 99.7 96.7 99.9C94 100.6 91.5 101.7 89 102.9C87.2 103.8 85.3 104.8 83.5 105.7C80 107.3 76.4 108.4 72.5 108.3C69.4 108.2 66.4 107.5 63.6 106.4C61.5 105.6 59.3 104.8 57.2 104C50.7 101.5 44.1 101.4 37.4 103.3C34.8 104 32.3 105 29.8 105.8C27.9 106.4 25.9 106.9 23.9 107.3C21.1 107.9 18.5 107.3 15.9 106.3C14.8 105.9 13.7 105.3 12.7 104.8C11.4 104.1 10.1 103.4 8.89996 102.7C6.39996 101.4 3.99996 99.9 0.899963 99.6C1.79996 95.5 3.59996 92 6.49996 89C7.29996 89.6 8.09996 90.3 8.89996 90.8C11.4 92.5 14.2 93.6 17.1 94.4C21.7 95.7 26.5 96.4 31.2 96.7C36.4 97.1 41.7 97.4 46.9 97.3C51.9 97.2 56.9 97 61.9 96.7C67.1 96.5 72.2 95.9 77.3 94.8C81.2 94 85.1 93 88.9 91.5C90.5 90.8 92 89.9 93.6 89.1C93.7 88.9 93.9 88.7 94.2 88.5Z" fill="#785F63"/>
<path d="M199.3 74.7C203.1 78.9 210.2 93.2 211.6 99.5C210.9 99.6 210.3 99.8 209.6 99.9C206.3 100.5 202.9 101.3 199.6 101.8C195.6 102.4 191.6 102.8 187.6 103.1C181 103.5 174.4 103.7 167.7 103.8C161.9 103.9 156.2 103.7 150.4 103.5C139.1 103.2 128 101.1 117.1 97.9C116.2 97.6 115.3 97.4 114.3 97.1C115.9 89.7 119.4 83.5 124.6 78C124.8 78.3 125 78.5 125.1 78.7C126.7 81.8 129.2 83.5 132.7 83.9C135.1 84.2 137.5 84 139.9 83.9C142.6 83.8 145.4 83.6 148.1 83.7C150.9 83.8 153.6 84.6 156.2 85.6C158 86.3 159.7 87 161.4 87.7C166.1 89.6 170.9 89.8 175.8 88.9C180.3 88.1 184.5 86.6 188.5 84.4C190.7 83.2 192.5 81.7 194.1 79.8C195.6 78 197.2 76.3 199 74.7C199 74.8 199.2 74.8 199.3 74.7Z" fill="#785F63"/>
<path d="M145.4 56C145.5 56.3 145.6 56.5 145.7 56.6C148.4 63.3 153.3 67.3 160.3 69.1C164 70.1 167.7 70.3 171.4 69C175 67.8 177.9 65.7 179.9 62.5C180.7 61.2 181.4 59.9 182.2 58.4C182.3 58.4 182.5 58.3 182.7 58.4C186.1 59.1 189.6 59.6 192.8 60.9C194 61.3 195.1 61.9 196.1 62.6C196.7 63 197.3 63.6 197.8 64.2C199.5 66.3 199.3 68.8 197.3 70.7C197.2 70.8 197 71 196.9 71.1C194.8 72.7 193 74.5 191.5 76.6C188.7 80.3 184.8 82.5 180.5 83.9C177 85.1 173.3 85.6 169.6 85.5C167.3 85.4 165.1 84.8 163 84C160.4 83 157.7 82 155.1 81C150.9 79.5 146.6 79.3 142.2 79.7C140.2 79.9 138.1 80.1 136.1 80.1C134.7 80.1 133.4 80 132 79.7C129.9 79.2 128.8 77.8 128.2 75.8C127.8 74.4 128 73 128.2 71.6C129.1 66.9 131.7 63.3 135.3 60.3C137.8 58.3 140.5 56.9 143.7 56.2C144.4 56.1 144.8 56.1 145.4 56Z" fill="#E4A87C"/>
<path d="M163.1 28.7C163.3 25.1 163.9 22 164.8 19C166.7 13.1 169.4 7.7 173.5 3C174 2.4 174.6 1.69999 175.2 1.19999C175.7 0.799993 176.3 0.399993 176.9 0.199993C178.1 -0.200007 179.2 0.799996 178.9 2C178.7 2.8 178.2 3.6 177.7 4.3C176.5 6 175.1 7.7 174 9.5C170.8 14.5 168.8 20 167.5 25.8C167.2 27.1 166.9 28.3 166.6 29.6C166.5 30 166.4 30.4 166.2 30.8C165.5 31.9 164.2 31.9 163.6 30.8C163.3 30 163.2 29.2 163.1 28.7Z" fill="#97CB9E"/>
<path d="M164.7 35.6C166.5 35.8 168.3 35.9 170 36.3C175 37.6 177.9 41 179.2 45.8C180.6 50.8 179.8 55.6 177 60C174.4 64.1 170.6 66 165.8 66C162.9 66 160.1 65.3 157.5 64.1C152.7 61.9 149.4 58.2 148.3 52.9C146.9 46.6 149.7 40.5 155.9 37.5C158.7 36.3 161.6 35.7 164.7 35.6Z" fill="#EE7896"/>
<path d="M156.8 155.5C153.1 155.3 149.5 155 145.9 154.8C140.8 138.4 137 121.7 132 105.2C138.8 106.5 145.6 107.3 152.4 107.5C153.5 123.5 155.1 139.4 156.8 155.5Z" fill="#98D5E8"/>
<path d="M172.9 155.8C169.1 155.7 165.2 155.7 161.3 155.6C160.6 147.5 159.9 139.6 159.1 131.6C158.3 123.7 157.9 115.7 156.6 107.7C162.8 107.6 169.1 107.6 175.4 107.5C174.4 123.6 173.9 139.7 172.9 155.8Z" fill="#98D5E8"/>
<path d="M187.1 155.7C184 155.7 180.9 155.8 177.8 155.8C177.8 154.7 177.7 153.6 177.8 152.6C178 148.1 178.3 143.6 178.5 139.1C178.8 133.9 179 128.6 179.3 123.4C179.5 119.5 179.6 115.6 179.8 111.6C179.8 110.2 179.8 108.9 179.8 107.4C185.5 107 191.3 106.5 197.2 106.1C197.2 106.2 197.2 106.4 197.2 106.5C195.6 111.8 194.7 117.3 193.7 122.7C192.6 128.5 191.5 134.3 190.4 140.1C189.5 144.6 188.7 149.1 187.9 153.6C187.5 154.4 187.3 155 187.1 155.7Z" fill="#98D5E8"/>
<path d="M141.5 154.2C139.2 153.9 137.1 153.6 135 153C133.9 152.6 132.9 152 132.3 151C131.1 149.1 129.9 147.3 128.9 145.4C125 138.2 121.9 130.6 119.3 122.8C117.6 117.8 116.1 112.8 114.6 107.8C114 105.6 113.7 103.3 113.2 101C113.2 100.9 113.2 100.7 113.2 100.4C118.2 101.7 123 103 128 104.3C131.7 121.2 136.5 137.6 141.5 154.2Z" fill="#98D5E8"/>
<path d="M201.2 105.4C206 104.7 210.4 103.2 215.3 102.8C215.2 103.6 215.1 104.3 215 105C213.8 109.4 212.7 113.9 211.5 118.3C209.7 124.7 208 131.1 205.4 137.2C203.7 141.3 201.7 145.2 199.7 149.2C199 150.7 197.9 152.1 197 153.4C195.6 155.3 193.7 155.7 191.4 155.6C194.6 138.8 197.9 122.1 201.2 105.4Z" fill="#98D5E8"/>
</svg>
