<svg width="62" height="95" viewBox="0 0 62 95" fill="none" xmlns="http://www.w3.org/2000/svg">
<path d="M10.1987 30.2816C9.82098 28.8337 10.0728 27.3857 10.3246 25.9377C11.206 21.7197 13.7872 18.8237 17.5645 16.998C19.5161 16.0537 21.5937 15.3612 23.5453 14.5427C25.1822 13.8502 26.8819 13.2207 28.4558 12.4652C29.8409 11.8357 31.037 10.9543 31.9814 9.75812C33.1775 8.37309 33.8071 6.67329 33.87 4.84758C33.933 4.09211 33.7441 3.33664 33.4293 2.58117C33.1775 1.95162 32.7998 1.38502 32.5479 0.755465C32.422 0.503643 32.2961 0.314778 32.1702 0C32.7998 0 33.1775 0.251824 33.6182 0.503647C35.6328 1.6998 36.9548 3.46256 37.8992 5.54009C38.8435 7.8065 39.2842 10.1359 39.0953 12.5911C38.9694 14.0391 38.4028 15.3612 37.4585 16.4314C37.2696 16.6203 37.0178 16.8091 36.8289 17.061C36.1994 17.7535 35.5069 18.0053 34.5625 18.0683C33.1146 18.1942 31.7295 18.446 30.2815 18.6349C28.7077 18.8237 27.1967 19.0126 25.6228 19.2015C24.7415 19.3274 23.923 19.5162 23.1046 19.7051C22.8528 19.7681 22.538 19.9569 22.3492 20.1458C21.7826 20.7124 22.0344 21.4679 22.7898 21.6567C23.0417 21.7197 23.2935 21.7197 23.6083 21.6567C25.1192 21.5308 26.5672 21.4049 28.0781 21.216C29.7779 21.0272 31.4777 20.7753 33.1775 20.5235C35.6957 20.1458 38.2769 19.9569 40.7951 20.2717C44.3206 20.7124 47.2166 22.3492 49.4201 25.0563C50.868 26.882 51.8753 28.8966 52.379 31.163C52.5049 31.8555 52.5678 32.548 52.6308 33.2406C52.4419 33.2406 52.316 33.2406 52.1901 33.2406C48.6646 32.2333 45.0761 32.2333 41.5506 32.9258C37.9621 33.6183 34.3107 34.1219 30.6593 34.1849C29.9668 34.1849 29.2743 34.3738 28.5818 34.4997C28.3299 34.5626 28.0781 34.6885 27.9522 34.8774C27.5745 35.3181 27.8263 35.9477 28.4558 36.0736C29.0854 36.1995 29.7149 36.3254 30.3445 36.3254C33.6182 36.3883 36.8289 36.1365 40.0397 35.5699C41.9913 35.2551 43.9429 34.8144 45.9575 34.7515C49.0423 34.6885 52.0012 35.1922 54.7713 36.7031C56.9118 37.8363 58.5486 39.4732 59.2411 41.8655C59.4929 42.8098 59.6818 43.7541 59.493 44.7614C59.1152 47.2797 57.2265 49.0424 54.6454 49.0424C53.1974 49.0424 51.6865 48.8535 50.2385 48.6647C46.8389 48.2869 43.3763 47.7833 39.9767 47.4056C37.5215 47.1537 35.0662 47.2167 32.6109 47.5315C28.8965 47.9722 25.1821 48.5388 21.5307 48.9795C18.8866 49.2942 16.2424 49.5461 13.5983 49.2942C11.3319 49.1054 9.12847 48.7276 7.11389 47.7203C6.35842 47.3426 5.54 46.839 4.91045 46.2724C3.39951 44.8873 2.707 43.1875 3.02178 41.173C3.08473 40.6064 3.33655 40.0398 3.58837 39.5361C5.60295 35.5699 8.81369 33.0517 12.9688 31.7296C14.9833 31.1001 16.9979 30.7223 19.0755 30.5964C21.9085 30.3446 24.7415 30.2187 27.5745 29.9669C30.6593 29.715 33.7441 29.4003 36.8919 29.0855C37.4585 29.0225 38.088 28.8337 38.6546 28.6448C39.0953 28.5189 39.3472 28.1411 39.2842 27.7634C39.2842 27.3857 38.9694 27.0079 38.4658 27.0079C37.6473 26.945 36.766 26.945 35.9475 26.945C33.87 27.0709 31.7925 27.1968 29.652 27.3227C26.1265 27.5116 22.601 27.6375 19.1384 27.9523C16.2425 28.2041 13.4095 28.7078 10.7024 29.778C10.4505 30.2187 10.3246 30.2816 10.1987 30.2816Z" fill="#97CB9E"/>
<path d="M44.006 94.937C43.7541 94.937 43.5653 95 43.3134 95C39.4731 95 35.5699 94.937 31.7296 94.937C31.3519 94.937 31.1001 94.8111 30.7853 94.6223C29.5891 93.7409 28.7077 92.5447 28.0782 91.2227C27.2598 89.4599 26.882 87.6342 27.1968 85.6826C27.3227 84.7382 27.7004 83.8568 28.393 83.1643C29.2114 82.283 30.1557 82.157 31.226 82.5977C32.611 83.1643 33.5553 84.2346 34.059 85.6196C34.5626 87.1935 33.7442 88.6415 32.2333 88.9563C31.226 89.2081 30.4705 88.6415 30.4075 87.6342C30.4075 87.3824 30.4075 87.1306 30.4075 86.8158C30.3446 86.2492 30.0298 85.8714 29.5262 85.8085C29.0225 85.7455 28.6448 86.0603 28.5189 86.6269C27.9523 88.5785 29.6521 90.9079 31.6667 91.0338C34.9403 91.1597 37.2697 88.4526 36.6401 85.3048C36.1365 82.7866 34.6885 80.8979 32.2333 79.8907C29.1484 78.6315 26.5672 80.4572 25.56 82.22C24.6156 83.8568 24.4268 85.6826 24.6786 87.5712C24.9934 90.2154 26.0006 92.5447 27.7634 94.4963C27.8264 94.5593 27.8264 94.6223 27.8893 94.6852V94.7482C27.1339 94.7482 26.3154 94.8111 25.56 94.7482C22.9788 94.5593 20.3976 94.3704 17.7535 94.1186C16.1166 93.9297 14.4798 93.8038 12.9059 93.3632C12.4652 93.2372 12.1504 93.0484 12.0245 92.6077C11.1431 90.0265 10.9543 87.4453 12.2134 84.8641C12.717 83.8569 13.4725 83.1014 14.4168 82.5348C15.3612 82.0311 16.3055 81.9682 17.2498 82.4089C18.5089 82.9755 19.3274 83.9828 19.7681 85.3048C19.9569 85.8085 19.831 86.3121 19.5792 86.7528C19.1385 87.5712 18.446 88.0749 17.5016 88.1378C16.8721 88.2008 16.4314 87.949 16.1166 87.3824C15.9907 87.1305 15.8648 86.8158 15.7389 86.6269C15.55 86.3751 15.3612 86.1232 15.1093 85.9973C14.6057 85.6826 14.0391 85.9344 13.8502 86.438C13.7873 86.6269 13.7243 86.9417 13.7873 87.1306C14.4798 89.271 16.0537 90.656 18.5089 90.0265C20.2087 89.5858 21.4049 88.5156 21.9085 86.7528C22.1604 85.9973 22.0974 85.2419 21.8456 84.4864C21.0901 81.9682 19.4533 80.2054 16.8091 79.7018C15.7389 79.5129 14.6686 79.6388 13.6614 80.1425C11.5209 81.1498 10.2618 82.9755 9.6322 85.1789C9.25447 86.438 9.06559 87.6972 9.25446 89.0192C9.25446 89.0822 9.25446 89.2081 9.25446 89.3969C9.12855 89.1451 9.00264 89.0192 8.93968 88.8933C6.98806 84.9901 5.35122 80.9609 3.96619 76.8688C3.90324 76.617 3.84028 76.3651 3.96619 76.1133C4.84757 74.0987 7.42876 72.9026 9.44334 73.721C9.88403 73.9099 10.3247 74.1617 10.6395 74.4765C11.7727 75.6097 11.395 77.4354 9.94698 78.0649C9.19151 78.4427 7.99535 78.1909 7.93239 77.0577C7.93239 76.9317 7.86945 76.7429 7.80649 76.617C7.61762 76.1133 7.23989 75.8615 6.7992 75.9244C6.35851 75.9874 6.04372 76.3022 6.04372 76.8688C5.98077 78.0649 6.48442 79.0093 7.49171 79.5759C8.43605 80.1425 9.50629 80.2054 10.5765 79.7647C12.2134 79.0722 13.2207 77.8761 13.4095 76.1133C13.6614 74.2876 12.9059 72.8396 11.3949 71.8323C8.93968 70.1955 5.28827 70.825 3.46256 73.2174C3.33665 73.4062 3.21072 73.5951 2.9589 73.8469C1.76275 70.1325 0.881378 66.4811 0 62.7038C0.251822 62.8926 0.37773 63.0186 0.566597 63.1445C2.39231 64.5924 4.21802 66.1034 5.98078 67.5514C6.35851 67.8661 6.7992 68.118 7.23989 68.4327C8.31014 69.1882 9.50628 69.2512 10.7654 68.8734C12.0875 68.4327 13.3466 67.8032 14.5427 67.1107C15.4241 66.5441 16.3055 66.0404 17.3128 65.4109C17.1239 65.7886 17.061 66.0404 16.9351 66.2293C15.9907 68.4957 15.613 70.825 16.3685 73.2174C17.1239 75.6097 18.6978 77.2465 21.0901 78.0649C23.0417 78.7574 25.2452 78.002 26.3784 76.2392C27.5116 74.5394 27.7005 72.6508 27.0079 70.6991C26.1266 68.3068 23.4824 67.6773 21.5938 69.3141C21.279 69.6289 20.9642 70.0066 20.8383 70.3844C20.5865 70.951 20.8383 71.5176 21.279 71.7694C21.6567 72.0212 22.1604 71.8953 22.6011 71.4546C22.727 71.3287 22.7899 71.2028 22.9158 71.0769C23.5454 70.4473 24.4268 70.5732 24.8675 71.3287C25.4341 72.3989 25.3711 74.1617 24.6156 75.106C23.9861 75.9244 22.9788 76.2392 21.9715 75.8615C20.1458 75.169 19.1385 73.8469 18.6348 72.0212C17.8794 69.0623 19.4533 64.5295 22.7899 62.8926C23.0417 63.0815 23.3565 63.2704 23.6083 63.5222C24.8675 64.7183 26.1895 65.8516 27.4486 67.0477C28.393 67.9291 29.3373 68.7475 30.2816 69.6289C31.226 70.5103 32.2962 70.6362 33.4294 70.1325C34.059 69.8807 34.6885 69.5659 35.381 69.2512C35.3181 69.503 35.2551 69.7548 35.1922 69.9437C34.5626 72.0212 34.3738 74.1617 34.9404 76.3022C35.1922 77.3724 35.6958 78.2538 36.3883 79.0722C39.0325 82.157 43.6912 81.7164 45.7057 78.1908C46.5871 76.617 46.9019 74.9801 46.5242 73.2174C46.0205 70.951 43.6912 69.6289 41.4877 70.3844C40.1027 70.825 39.0954 72.273 39.1584 73.721C39.1584 73.8469 39.1584 73.9099 39.1584 74.0358C39.2843 74.6024 39.5991 74.9801 40.0397 75.0431C40.4804 75.106 40.9211 74.8542 41.11 74.2876C41.2359 73.9728 41.2989 73.658 41.3618 73.4062C41.6136 72.6508 42.1802 72.336 42.9987 72.5248C43.6912 72.7137 44.1948 73.0914 44.3207 73.784C44.6985 75.4208 44.3207 76.9317 43.0616 78.0649C41.6766 79.387 39.4102 79.0722 38.0881 77.5613C37.3956 76.6799 37.0179 75.6726 36.892 74.6024C36.6401 72.0212 37.2068 69.6289 38.6547 67.4884C38.8436 67.2366 39.0325 66.9848 39.2213 66.8588C40.7952 65.9145 42.3691 64.9702 43.943 64.0258C44.5096 63.6481 45.0132 63.7111 45.5169 64.0888C46.5242 64.9072 47.5315 65.7256 48.5387 66.5441C49.3572 67.1736 50.1126 67.8661 50.9311 68.4957C51.6236 68.9993 52.3791 69.1252 53.1975 68.8105C53.3234 68.7475 53.4493 68.7475 53.6382 68.6845C54.4566 69.5659 54.8343 70.6362 55.0232 71.8323C55.2121 73.2803 55.0232 74.7283 54.3936 76.0504C54.0788 76.6799 53.6382 77.2465 53.0716 77.6243C52.1272 78.1909 51.057 77.8761 50.5533 76.8688C50.3015 76.3022 50.2386 75.7356 50.3645 75.169C50.5533 74.3506 51.2458 74.0358 52.0013 74.3506C52.2531 74.4765 52.505 74.6024 52.7568 74.6653C53.5122 74.7912 53.9529 74.2876 53.7641 73.5321C53.6382 73.0914 53.3234 72.7767 52.9456 72.5248C51.057 71.3916 48.7276 72.3989 48.2869 74.6024C48.0981 75.7356 48.224 76.8688 48.8535 77.8761C49.8608 79.6388 52.0643 80.3313 53.89 79.387C54.8973 78.8834 55.5898 78.1908 56.1564 77.2465C57.8562 74.4765 57.8562 70.6991 55.7157 67.992C55.6527 67.9291 55.5898 67.8661 55.5268 67.7402C57.5414 66.5441 59.493 65.3479 61.5706 64.0888C61.5076 64.4036 61.5076 64.5924 61.4446 64.7813C59.8078 70.6362 58.0451 76.491 55.7157 82.157C54.5195 85.116 53.1345 88.0119 51.3088 90.719C50.9311 91.2856 50.4904 91.7893 50.1126 92.3559C49.4831 93.2372 48.6017 93.615 47.5944 93.6779C45.391 93.8668 42.9357 92.5447 41.9284 90.5931C41.2989 89.334 41.2359 88.0119 41.6136 86.7528C42.1802 84.9901 43.7541 84.3605 45.391 85.116C46.0205 85.4307 46.5242 85.8714 46.839 86.501C47.0908 87.0046 47.0278 87.3194 46.5871 87.6342C46.2094 87.886 45.8317 88.0119 45.391 88.2008C45.1391 88.3267 44.8244 88.3897 44.6355 88.5785C44.006 89.0192 44.1319 89.8376 44.8873 90.1524C45.0762 90.2154 45.391 90.2783 45.5798 90.2783C46.4612 90.1524 47.3426 89.8376 48.0351 89.334C49.3572 88.3267 49.7349 86.8787 49.0424 85.3678C48.0981 83.3532 45.7058 82.0941 43.3134 82.4089C41.2989 82.6607 39.5991 84.5494 39.2843 86.7528C38.7177 90.1524 40.4804 93.0484 42.9987 94.5593C43.2505 94.6852 43.4394 94.8111 43.6912 94.937C44.006 94.8741 44.006 94.8741 44.006 94.937Z" fill="#EE7896"/>
<path d="M32.4851 68.055C32.1703 67.7402 31.9185 67.4884 31.6667 67.2995C29.778 65.5368 27.9523 63.7111 26.0637 61.9483C25.56 61.4447 24.9305 61.004 24.3639 60.6262C23.4195 59.9967 22.4122 59.9337 21.405 60.4374C21.0272 60.6262 20.6495 60.8151 20.3347 61.004C18.1942 62.2631 16.1167 63.5222 13.9762 64.7184C12.78 65.3479 11.5839 65.9145 10.3248 66.4811C9.69521 66.7959 9.1286 66.7329 8.62495 66.2922C8.562 66.2293 8.43609 66.1663 8.31018 66.1034C5.60309 64.0258 2.83303 61.8853 0.0629883 59.7449C0.440722 57.9191 0.818463 56.0934 1.7628 54.3936C2.70713 52.7568 3.84033 51.1829 4.84762 49.609C5.47717 49.9238 6.04379 50.2386 6.61039 50.4904C8.56201 51.4347 10.6395 51.8125 12.7171 52.0643C15.9278 52.442 19.1385 52.1272 22.3493 51.7495C25.6859 51.3088 29.0855 50.8052 32.4222 50.4274C35.444 50.0497 38.4659 50.1126 41.4248 50.4904C44.7615 50.9311 48.0352 51.3718 51.3718 51.7495C52.568 51.8754 53.7641 51.8125 54.9603 51.8125C55.0862 51.8125 55.2751 51.8125 55.338 51.8125C57.9192 54.7714 60.1226 57.8562 61.3818 61.5706C61.3188 61.6335 61.1929 61.6965 61.067 61.8224C58.6747 63.3963 56.2194 64.9072 53.7012 66.2293C52.6939 66.7329 52.6939 66.7329 51.8755 65.9775C50.9311 65.0961 50.0497 64.2147 49.0425 63.3963C48.287 62.7667 47.4686 62.2001 46.6501 61.6965C45.454 60.941 44.2578 61.0669 43.0617 61.8853C40.4805 63.5222 37.8364 65.159 35.1922 66.7329C34.4368 67.1107 33.4295 67.5513 32.4851 68.055Z" fill="#785F63"/>
</svg>
